<svg width="117" height="92" viewBox="0 0 117 92" fill="none" xmlns="http://www.w3.org/2000/svg">
    <path
        d="M13 87.8857V87.8429C13 85.8285 11.9076 84.8214 10.1378 84.1571C11.2302 83.5571 12.1479 82.6143 12.1479 80.9214V80.8785C12.1479 78.5214 10.2252 77 7.10084 77H0V92H7.27563C10.7277 92 13 90.6286 13 87.8857ZM8.80504 81.4785C8.80504 82.5928 7.86554 83.0643 6.37983 83.0643H3.27731V79.8929H6.59831C8.01849 79.8929 8.80504 80.4499 8.80504 81.4357V81.4785ZM9.65714 87.4786C9.65714 88.5929 8.76135 89.1072 7.27563 89.1072H3.27731V85.8072H7.16639C8.89244 85.8072 9.65714 86.4285 9.65714 87.4356V87.4786Z"
        fill="white" />
    <path d="M29 92V77H25.5787V86.2358L18.1962 77H15V92H18.4213V82.4643L26.0515 92H29Z" fill="white" />
    <path
        d="M44 87.8857V87.8429C44 85.8285 42.9916 84.8214 41.358 84.1571C42.3664 83.5571 43.2135 82.6143 43.2135 80.9214V80.8785C43.2135 78.5214 41.4386 77 38.5547 77H32V92H38.7161C41.9025 92 44 90.6286 44 87.8857ZM40.1278 81.4785C40.1278 82.5928 39.2606 83.0643 37.8892 83.0643H35.0252V79.8929H38.0908C39.4017 79.8929 40.1278 80.4499 40.1278 81.4357V81.4785ZM40.9144 87.4786C40.9144 88.5929 40.0875 89.1072 38.7161 89.1072H35.0252V85.8072H38.6151C40.2085 85.8072 40.9144 86.4285 40.9144 87.4356V87.4786Z"
        fill="white" />
    <path
        d="M62 89.2597L60.3953 87.4917C59.1765 88.7293 58.0594 89.5028 56.3126 89.5028C53.5907 89.5028 51.6204 87.0276 51.6204 83.9778C51.6204 80.9282 53.5907 78.4972 56.3126 78.4972C57.9375 78.4972 59.1563 79.2707 60.2937 80.4198L61.8984 78.4088C60.5375 76.9945 58.9531 76 56.3328 76C52.0266 76 49 79.6022 49 84.0222C49 88.4862 52.0876 92 56.2312 92C58.8922 92 60.5171 90.9393 62 89.2597Z"
        fill="white" />
    <path d="M74.4552 85.1V91H77V77H74.4552V82.82H67.5448V77H65V91H67.5448V85.1H74.4552Z"
        fill="white" />
    <path
        d="M88.6712 77H86.3288L80 91H82.589L84.0684 87.644H90.8698L92.3287 91H95L88.6712 77ZM89.9451 85.4794H84.9931L87.4589 79.9192L89.9451 85.4794Z"
        fill="white" />
    <path d="M98 77V91H100V77H98Z" fill="white" />
    <path d="M114.421 86.68L106.43 77H104V91H106.579V81.04L114.805 91H117V77H114.421V86.68Z"
        fill="white" />
    <path
        d="M40.5801 10.5688L59.0001 0L77.4199 10.5688L70.6479 14.4731L59.0001 7.80876L47.3521 14.4731L40.5801 10.5688ZM77.4199 23.8975L70.6479 19.9931L59.0001 26.6575L47.3521 19.9931L40.5801 23.8975V31.7062L52.2281 38.3706V51.6995L59.0001 55.6039L65.7719 51.6995V38.3706L77.4199 31.7062V23.8975ZM77.4199 45.0351V37.2263L70.6479 41.1307V48.9395L77.4199 45.0351ZM82.228 47.7951L70.5802 54.4595V62.2683L89 51.6995V30.5618L82.228 34.4662V47.7951ZM75.4559 17.2331L82.228 21.1375V28.9463L89 25.0419V17.2331L82.228 13.3288L75.4559 17.2331ZM52.2281 57.2868V65.0956L59.0001 69L65.7719 65.0956V57.2868L59.0001 61.1912L52.2281 57.2868ZM40.5801 45.0351L47.3521 48.9395V41.1307L40.5801 37.2263V45.0351ZM52.2281 17.2331L59.0001 21.1375L65.7719 17.2331L59.0001 13.3288L52.2281 17.2331ZM35.772 21.1375L42.5441 17.2331L35.772 13.3288L29 17.2331V25.0419L35.772 28.9463V21.1375ZM35.772 34.4662L29 30.5618V51.6995L47.4198 62.2683V54.4595L35.772 47.7951V34.4662Z"
        fill="white" />
</svg>