<svg width="141" height="96" viewBox="0 0 141 96" fill="none" xmlns="http://www.w3.org/2000/svg">
    <path
        d="M12.7356 89.0331C12.7356 89.3448 12.4753 89.5985 12.1645 89.5985H1.16172C1.43643 92.3244 3.48228 94.811 6.35948 94.811C8.32581 94.811 9.7861 94.057 10.8849 92.4839C11.044 92.2664 11.2825 92.1286 11.5862 92.2591C11.7524 92.3316 11.8681 92.4839 11.897 92.6579C11.9259 92.8391 11.8753 92.9406 11.8247 93.0421C10.7187 94.9777 8.51376 95.9274 6.35225 95.9274C2.65092 95.9274 0.0122833 92.6071 0.0122833 89.0548C0.0122833 85.5025 2.65092 82.1822 6.35225 82.1822C10.0536 82.1749 12.7284 85.488 12.7356 89.0331ZM11.5572 88.4966C11.3187 85.7707 9.23668 83.2841 6.35948 83.2841C3.48228 83.2841 1.43643 85.7707 1.16172 88.4966H11.5572ZM26.0878 82.4504C26.4059 82.4504 26.6372 82.7259 26.6372 83.0014C26.6372 83.3204 26.3987 83.5523 26.0878 83.5523H23.1383V95.159C23.1383 95.4345 22.8998 95.71 22.5889 95.71C22.2708 95.71 22.0395 95.4345 22.0395 95.159V83.5523H19.2057C18.8876 83.5523 18.6563 83.3131 18.6563 83.0014C18.6563 82.7259 18.8948 82.4504 19.2057 82.4504H22.0395V78.2021C22.0395 77.9339 22.2202 77.6874 22.4805 77.6439C22.8492 77.5859 23.1383 77.8396 23.1383 78.1876V82.4504H26.0878ZM44.0812 88.0616V95.0937C44.0812 95.4127 43.8065 95.6447 43.5318 95.6447C43.2137 95.6447 42.9824 95.4055 42.9824 95.0937V88.0616C42.9824 85.691 41.645 83.3204 39.0063 83.3204C35.6231 83.3204 34.1628 86.2855 34.358 89.323C34.358 89.4028 34.3941 89.758 34.3941 89.7943V95.072C34.3941 95.3402 34.2134 95.5867 33.9531 95.6302C33.5845 95.6882 33.2953 95.4345 33.2953 95.0865V71.9892C33.2953 71.7137 33.5339 71.4382 33.8447 71.4382C34.1628 71.4382 34.3941 71.7137 34.3941 71.9892V85.0603C35.3411 83.3639 37.0328 82.2184 38.9991 82.2184C42.2305 82.2184 44.0812 85.0603 44.0812 88.0616ZM63.8095 89.0331C63.8095 89.3448 63.5493 89.5985 63.2384 89.5985H52.2284C52.5031 92.3244 54.549 94.811 57.4262 94.811C59.3925 94.811 60.8528 94.057 61.9516 92.4839C62.1107 92.2664 62.3493 92.1286 62.6529 92.2591C62.8191 92.3316 62.9348 92.4839 62.9637 92.6579C62.9926 92.8391 62.942 92.9406 62.8914 93.0421C61.7854 94.9777 59.5805 95.9274 57.419 95.9274C53.7176 95.9274 51.079 92.6071 51.079 89.0548C51.079 85.5025 53.7176 82.1822 57.419 82.1822C61.1275 82.1749 63.8023 85.488 63.8095 89.0331ZM62.624 88.4966C62.3854 85.7707 60.3034 83.2841 57.4262 83.2841C54.549 83.2841 52.5031 85.7707 52.2284 88.4966H62.624ZM77.3136 82.9651C77.3136 83.3204 77.1184 83.5161 76.8003 83.5596C73.5689 84.0308 72.1158 86.6769 72.1158 89.758V95.0357C72.1158 95.304 71.9351 95.5505 71.6749 95.594C71.3062 95.652 71.017 95.3982 71.017 95.0502V83.0231C71.017 82.7549 71.1977 82.5084 71.458 82.4649C71.8267 82.4069 72.1158 82.6606 72.1158 83.0086V85.459C73.0195 83.9221 74.834 82.4576 76.7208 82.4576C76.9955 82.4504 77.3136 82.6534 77.3136 82.9651ZM95.3865 89.0331C95.3865 89.3448 95.1262 89.5985 94.8154 89.5985H83.8126C84.0873 92.3244 86.1332 94.811 89.0104 94.811C90.9767 94.811 92.437 94.057 93.5358 92.4839C93.6948 92.2664 93.9334 92.1286 94.237 92.2591C94.4033 92.3316 94.519 92.4839 94.5479 92.6579C94.5768 92.8391 94.5262 92.9406 94.4756 93.0421C93.3695 94.9777 91.1646 95.9274 89.0031 95.9274C85.3018 95.9274 82.6632 92.6071 82.6632 89.0548C82.6632 85.5025 85.3018 82.1822 89.0031 82.1822C92.7045 82.1749 95.3792 85.488 95.3865 89.0331ZM94.2081 88.4966C93.9696 85.7707 91.8876 83.2841 89.0104 83.2841C86.1332 83.2841 84.0873 85.7707 83.8126 88.4966H94.2081ZM113.148 83.1029V95.159C113.148 95.478 112.874 95.71 112.599 95.71C112.281 95.71 112.05 95.4707 112.05 95.159V92.8681C111.146 94.6878 109.527 95.9854 107.481 95.9854C104.213 95.9854 102.399 93.1436 102.399 90.1422V83.0739C102.399 82.7984 102.637 82.5229 102.948 82.5229C103.266 82.5229 103.498 82.7984 103.498 83.0739V90.1422C103.498 92.5129 104.835 94.8835 107.474 94.8835C111.175 94.8835 112.042 91.4109 112.042 87.5759V83.0739C112.042 82.7549 112.361 82.4287 112.751 82.5446C112.989 82.6244 113.148 82.8564 113.148 83.1029ZM140.981 88.0181V95.0865C140.981 95.4055 140.706 95.6375 140.431 95.6375C140.113 95.6375 139.882 95.3982 139.882 95.0865V88.0181C139.882 85.6475 138.544 83.3204 135.906 83.3204C132.595 83.3204 131.337 86.8727 131.337 89.6348V95.0865C131.337 95.4055 131.062 95.6375 130.788 95.6375C130.47 95.6375 130.238 95.3982 130.238 95.0865V88.0181C130.238 85.6475 128.901 83.3204 126.262 83.3204C122.915 83.3204 121.534 85.9665 121.657 89.4825C121.657 89.5623 121.693 89.7218 121.657 89.758V95.072C121.657 95.3402 121.476 95.5867 121.209 95.6302C120.84 95.6882 120.551 95.4345 120.551 95.0865V83.0231C120.551 82.7549 120.732 82.5084 120.992 82.4649C121.361 82.4069 121.65 82.6606 121.65 83.0086V85.024C122.597 83.3276 124.289 82.2184 126.255 82.2184C128.496 82.2184 130.231 83.6393 130.939 85.7345C131.843 83.6828 133.614 82.2184 135.899 82.2184C139.13 82.2184 140.981 85.0168 140.981 88.0181Z"
        fill="white" />
    <g clip-path="url(#clip0_116_25)">
        <path d="M55 30.6019L73.3528 41.4984V0L55 30.6019Z" fill="white" />
        <path d="M73.3526 0V41.4985L91.6982 30.6019L73.3526 0Z" fill="#EAEAEA" />
        <path d="M55 34.0963L73.3528 60.08V44.993L55 34.0963Z" fill="white" />
        <path d="M73.3526 44.9932V60.0802L91.7128 34.0964L73.3526 44.9932Z" fill="#D0D0D0" />
        <path opacity="0.1"
            d="M73.3528 22.2137L55 30.6019L73.3528 41.4985L91.6984 30.6019L73.3528 22.2137Z"
            fill="black" />
    </g>
    <defs>
        <clipPath id="clip0_116_25">
            <rect width="36.79" height="60.08" fill="white" transform="translate(55)" />
        </clipPath>
    </defs>
</svg>