<svg width="126" height="96" viewBox="0 0 126 96" fill="none" xmlns="http://www.w3.org/2000/svg">
    <path
        d="M14.7906 72.6728C15.9084 73.3486 16.8542 74.2778 17.4561 75.545C18.1441 76.8122 18.4881 78.3329 18.4881 80.0223C18.4881 81.7119 18.1441 83.1482 17.3701 84.4154C16.6823 85.6824 15.6503 86.6119 14.3604 87.203C13.0706 87.8789 11.5227 88.2168 9.889 88.2168C8.9431 88.2168 8.083 88.0478 7.2233 87.71C6.3632 87.4566 5.5894 86.9496 4.9874 86.3583V95.1441H0V71.9969H4.2994L4.7295 73.8555C6.6212 72.3348 8.6851 71.5745 10.8348 71.5745C12.2966 71.5745 13.6724 71.9124 14.7906 72.6728ZM12.0388 83.1482C12.8987 82.388 13.3284 81.3739 13.3284 80.1069C13.3284 78.8397 12.8987 77.826 12.1247 76.9812C11.3508 76.1364 10.3189 75.7985 9.2012 75.7985C8.2551 75.7985 7.3952 75.9674 6.7072 76.3898C6.0192 76.7277 5.5035 77.3191 5.0735 78.0795V81.8809C5.3314 82.6414 5.8473 83.2325 6.4493 83.655C7.1373 84.0774 7.9111 84.3308 8.8572 84.3308C10.1468 84.3308 11.1788 83.9084 12.0388 83.1482Z"
        fill="white" />
    <path
        d="M21.4107 75.6275C22.1849 74.4448 23.2165 73.4311 24.5923 72.7553C25.9683 72.0795 27.5163 71.657 29.2361 71.657C30.9559 71.657 32.5036 71.995 33.8795 72.7553C35.1695 73.4311 36.2013 74.4448 36.9753 75.712C37.749 76.9792 38.0931 78.3309 38.0931 79.936C38.0931 81.5412 37.749 82.8927 36.9753 84.1599C36.2013 85.4269 35.2555 86.4408 33.8795 87.1166C32.5896 87.7925 30.9559 88.215 29.2361 88.215C27.5163 88.215 25.9683 87.877 24.5923 87.2012C23.2165 86.5253 22.1849 85.596 21.4107 84.3288C20.7229 83.0616 20.293 81.6255 20.293 79.936C20.293 78.3309 20.7229 76.8947 21.4107 75.6275ZM26.4842 82.977C27.1723 83.822 28.1181 84.1599 29.2361 84.1599C30.3538 84.1599 31.2999 83.7377 31.9877 82.977C32.6757 82.2168 33.0197 81.1187 33.0197 79.936C33.0197 78.6689 32.6757 77.655 31.9877 76.8947C31.2138 76.0499 30.3538 75.6275 29.1501 75.6275C28.0322 75.6275 27.1723 76.0499 26.3983 76.8102C25.7105 77.655 25.3665 78.6689 25.3665 79.936C25.3665 81.1187 25.7105 82.1325 26.4842 82.977Z"
        fill="white" />
    <path d="M46.1789 60V87.7936H41.1914V60H46.1789Z" fill="white" />
    <path
        d="M66.6439 72.418L56.4969 95.2272H51.6819L55.4649 87.033L48.2419 72.418H53.9169L58.0449 81.5416L62.1729 72.418H66.6439Z"
        fill="white" />
    <path
        d="M85.7329 72.4174V87.7925C85.7329 89.2286 85.3029 90.5803 84.4429 91.763C83.5829 92.9457 82.4649 93.875 81.0029 94.5509C79.5409 95.2267 77.9929 95.5645 76.2739 95.5645C74.9839 95.5645 73.8659 95.3956 72.9199 95.1422C71.9739 94.8043 71.1999 94.4663 70.5979 94.1284C69.9099 93.7059 69.2219 93.1991 68.4479 92.5234L71.3719 89.1441C72.0599 89.8199 72.8339 90.3269 73.5219 90.6649C74.2099 91.0026 75.1559 91.256 76.1879 91.256C77.4769 91.256 78.5089 90.9183 79.3689 90.3269C80.2289 89.7354 80.6589 88.8063 80.6589 87.708V85.5115C80.1429 86.2719 79.4549 86.9478 78.4229 87.4546C77.3909 87.9616 76.1879 88.215 74.8119 88.215C73.4359 88.215 72.0599 87.877 70.8559 87.1166C69.6519 86.4408 68.7059 85.4269 67.9319 84.1599C67.2449 82.8927 66.8149 81.5412 66.8149 80.0205C66.8149 78.4998 67.1589 77.0637 67.9319 75.7965C68.7059 74.5293 69.6519 73.5156 70.9419 72.7553C72.1459 71.995 73.4359 71.657 74.8119 71.657C76.1009 71.657 77.2189 71.826 78.2509 72.1639C79.2829 72.5018 80.0569 73.0087 80.5729 73.6001L81.0889 72.4174H85.7329ZM80.6589 81.8791V78.0775C80.3149 77.3171 79.7989 76.7258 79.0249 76.3034C78.2509 75.881 77.3909 75.6275 76.3599 75.6275C75.1559 75.6275 74.1239 76.0499 73.2639 76.8102C72.4039 77.5706 71.9739 78.5843 71.9739 79.8515C71.9739 81.0341 72.4039 82.1325 73.2639 82.977C74.1239 83.822 75.1559 84.2445 76.3599 84.2445C78.3369 84.1599 79.7989 83.3997 80.6589 81.8791Z"
        fill="white" />
    <path
        d="M89.8619 75.6295C90.6359 74.3623 91.6679 73.433 93.0439 72.6728C94.4199 71.9969 95.9679 71.5745 97.6869 71.5745C99.4069 71.5745 100.955 71.9124 102.331 72.6728C103.621 73.3486 104.653 74.3623 105.427 75.6295C106.115 76.8967 106.545 78.2483 106.545 79.8534C106.545 81.4585 106.201 82.8102 105.427 84.0774C104.739 85.3445 103.707 86.3585 102.331 87.0341C101.041 87.71 99.4069 88.1323 97.6869 88.1323C95.9679 88.1323 94.4199 87.7944 93.0439 87.1187C91.6679 86.4428 90.6359 85.5135 89.8619 84.2465C89.0879 82.9791 88.7439 81.543 88.7439 79.7689C88.7439 78.3329 89.0879 76.8967 89.8619 75.6295ZM94.8499 82.9791C95.5379 83.8238 96.4829 84.162 97.6009 84.162C98.7189 84.162 99.6649 83.7393 100.353 82.9791C101.041 82.2189 101.385 81.1205 101.385 79.938C101.385 78.6707 101.041 77.657 100.353 76.8967C99.6649 76.1364 98.7189 75.714 97.6009 75.714C96.4829 75.714 95.6239 76.1364 94.8499 76.8967C94.0759 77.657 93.7319 78.7552 93.7319 79.938C93.8179 81.1205 94.1619 82.1343 94.8499 82.9791Z"
        fill="white" />
    <path
        d="M123.957 72.9144C124.989 73.7591 125.418 74.8574 125.504 76.209V87.7826H120.431V78.0676C120.345 76.547 119.571 75.7866 118.109 75.7866C116.991 75.7866 116.045 76.2935 115.358 77.3917C114.67 78.4899 114.326 79.8416 114.326 81.4468V87.7826H109.338V72.4075H113.896L114.24 74.8574C114.841 73.8436 115.615 73.0833 116.647 72.492C117.679 71.9006 118.883 71.6472 120.259 71.6472C121.721 71.6472 123.011 72.0696 123.957 72.9144Z"
        fill="white" />
    <path
        d="M80.5774 18.3298C79.2675 17.5687 77.5645 17.5687 76.1238 18.3298L65.9057 24.1649L58.9631 27.9705L48.7454 33.8055C47.4354 34.5665 45.7325 34.5665 44.2916 33.8055L36.1698 29.2388C34.8598 28.4777 33.9428 27.0824 33.9428 25.5603V16.5539C33.9428 15.0317 34.7288 13.6364 36.1698 12.8753L44.1604 8.43552C45.4705 7.67443 47.1735 7.67443 48.6144 8.43552L56.6053 12.8753C57.915 13.6364 58.8321 15.0317 58.8321 16.5539V22.389L65.7749 18.4567V12.6216C65.7749 11.0993 64.9891 9.70402 63.548 8.9429L48.7454 0.570825C47.4354 -0.190275 45.7325 -0.190275 44.2916 0.570825L29.2269 8.9429C27.786 9.70402 27 11.0993 27 12.6216V29.4926C27 31.0149 27.786 32.4101 29.2269 33.1714L44.2916 41.5434C45.6014 42.3043 47.3045 42.3043 48.7454 41.5434L58.9631 35.835L65.9057 31.9027L76.1238 26.1946C77.4335 25.4334 79.1366 25.4334 80.5774 26.1946L88.5682 30.6344C89.8782 31.3954 90.7952 32.7906 90.7952 34.313V43.3192C90.7952 44.8415 90.0093 46.2369 88.5682 46.9979L80.5774 51.5645C79.2675 52.3255 77.5645 52.3255 76.1238 51.5645L68.1329 47.1248C66.8229 46.3638 65.9057 44.9681 65.9057 43.4461V37.6111L58.9631 41.5434V47.3784C58.9631 48.9004 59.749 50.2961 61.19 51.0571L76.2549 59.429C77.5645 60.1903 79.2675 60.1903 80.7084 59.429L95.7733 51.0571C97.0829 50.2961 98 48.9004 98 47.3784V30.5073C98 28.9852 97.2138 27.59 95.7733 26.8288L80.5774 18.3298Z"
        fill="white" />
</svg>